<?xml version="1.0" encoding="UTF-8"?>
<svg width="3550px" height="781px" viewBox="0 0 3550 781" version="1.1" xmlns="http://www.w3.org/2000/svg" xmlns:xlink="http://www.w3.org/1999/xlink">
    <!-- Generator: Sketch 61.2 (89653) - https://sketch.com -->
    <title>logo-white</title>
    <desc>Created with Sketch.</desc>
    <defs>
        <polygon id="path-1" points="0 0.63 1080 0.63 1080 780.211237 0 780.211237"></polygon>
    </defs>
    <g id="logo-white" stroke="none" stroke-width="1" fill="none" fill-rule="evenodd">
        <g id="logo">
            <mask id="mask-2" fill="white">
                <use xlink:href="#path-1"></use>
            </mask>
            <g id="Clip-2"></g>
            <path d="M1052.19,10.929 C1029.21,22.846 893.582,90.376 759.656,350.283 C759.656,350.283 716.455,445.13 690.816,480.177 C668.935,428.431 603.732,327.303 442.245,391.898 C442.245,391.898 301.509,452.43 205.416,644.617 L181.794,691.468 C154.714,698.7 126.791,705.357 101.117,710.029 C70.894,714.101 46.041,715.739 28.68,716.333 C28.029,716.309 7.452,715.567 1.122,716.498 C-5.309,717.444 16.252,749.823 56.734,762.441 C56.767,762.451 56.798,762.461 56.831,762.471 C69.342,768.219 83.55,772.591 99.939,775.544 C116.961,779.401 136.778,781.06 174.112,779.791 C174.777,779.769 175.441,779.748 176.111,779.723 C176.574,779.707 177.011,779.694 177.479,779.676 C177.602,779.672 177.725,779.648 177.848,779.642 C220.547,777.941 273.013,771.15 338.585,758.87 C552.715,718.768 668.292,739.575 695.531,746.953 C722.77,754.33 727.31,739.575 727.31,739.575 C727.31,739.575 823.782,576.708 819.81,568.196 C815.837,559.684 807.325,559.116 807.325,559.116 C639.35,533.012 532.285,545.497 350.691,634.781 C340.72,639.683 330.801,644.244 320.938,648.58 C317.972,649.623 293.966,658.02 260.21,668.601 C261.845,665.622 267.141,661.152 278.81,654.453 C319.669,630.997 453.594,543.984 545.905,522.797 C638.215,501.611 700.26,507.665 700.26,507.665 C700.26,507.665 716.15,473.616 728.256,453.943 C740.362,434.27 757.387,406.274 780.086,392.655 C802.785,379.035 846.67,358.984 862.181,340.068 C877.693,321.152 896.23,301.858 907.202,223.545 C907.202,223.545 915.772,155.598 953.642,113.207 C991.512,70.815 1035.03,26.163 1070.08,5.815 L1080,0.714 C1080,0.714 1075.18,-0.988 1052.19,10.929" id="Fill-1" fill="#FFFFFF" mask="url(#mask-2)"></path>
        </g>
        <g id="name" transform="translate(1080.000000, 191.000000)" fill="#FFFFFF">
            <path d="M2469.0122,252.829916 C2448.64009,250.652962 2434.55446,249.565975 2426.74932,249.565975 C2404.20813,249.565975 2388.49344,253.374898 2379.61719,260.974878 C2370.729,268.589747 2366.2864,281.949271 2366.2864,301.080253 L2366.2864,438.672036 L2267.46019,438.672036 L2267.46019,153.05041 L2361.73341,153.05041 L2361.73341,203.915474 L2363.69364,203.915474 C2368.45549,196.523958 2373.65294,188.923979 2379.28899,181.09469 C2397.48903,157.189897 2420.254,145.236012 2447.55704,145.236012 C2454.92358,145.236012 2462.08127,145.673785 2469.0122,146.534441 L2469.0122,252.829916" id="Fill-4"></path>
            <path d="M1618.34413,50.3880041 C1618.34413,62.5274359 1613.63344,72.9787002 1604.20607,81.718145 C1594.7757,90.4782854 1583.18938,94.8480078 1569.43813,94.8480078 C1556.08568,94.8480078 1544.59232,90.4782854 1534.96704,81.718145 C1525.34177,72.9787002 1520.53212,62.5274359 1520.53212,50.3880041 C1520.53212,37.8878781 1525.34177,27.362701 1534.96704,18.7858643 C1544.59232,10.2208536 1556.08568,5.92800049 1569.43813,5.92800049 C1583.18938,5.92800049 1594.7757,10.2208536 1604.20607,18.7858643 C1613.63344,27.362701 1618.34413,37.8878781 1618.34413,50.3880041" id="Fill-5"></path>
            <polygon id="Fill-6" points="1517.56812 438.672036 1624.27213 438.672036 1624.27213 139.308011 1517.56812 139.308011"></polygon>
            <path d="M2081.66952,208.962759 C2099.51204,193.214438 2132.96862,206.759303 2136.31428,219.102823 C2139.65994,231.446343 2136.31428,267.355846 2136.31428,267.355846 L2068.28688,267.355846 C2068.28688,233.69143 2063.82699,224.714054 2081.66952,208.962759 Z M2204.34167,309.997638 C2231.10399,296.533061 2228.87551,226.382258 2228.87551,226.382258 C2228.87551,226.382258 2231.10399,200.027014 2206.57015,168.607686 C2182.0363,137.185384 2088.36083,125.965894 2023.68204,147.340315 C1959.00031,168.714736 1965.29958,260.623558 1965.29958,296.875028 C1965.29958,333.126498 1963.4602,399.771396 2028.14194,426.703523 C2092.82073,453.632677 2219.95278,426.703523 2219.95278,426.703523 L2219.95278,361.456229 C2125.58459,380.823453 2087.43525,368.8219 2072.71141,352.401539 C2058.55353,336.611587 2066.05841,316.729926 2066.05841,316.729926 C2066.05841,316.729926 2177.57641,323.465188 2204.34167,309.997638 L2204.34167,309.997638 Z" id="Fill-7"></path>
            <path d="M1301.85538,353.994934 L1301.85538,238.810989 C1316.03188,228.647699 1341.66888,212.524676 1355.71774,217.271104 C1357.75991,218.264888 1359.58244,219.727381 1361.50588,220.970352 C1377.38023,235.33423 1381.53285,244.821153 1379.35413,292.472325 C1377.15464,340.565509 1380.16744,353.336367 1359.79615,369.634414 C1356.26687,371.630881 1352.52684,373.238733 1348.59388,374.49357 C1334.13243,376.15482 1315.12358,365.2677 1301.85538,353.994934 Z M1362.63086,143.950656 C1316.72942,152.571356 1301.85538,176.751441 1301.85538,176.751441 L1290.13069,151.082164 L1206.3481,151.082164 L1206.3481,589.836048 L1301.85538,556.255069 L1301.85538,430.373862 C1315.77957,441.017727 1338.16038,451.631927 1370.43149,448.306461 C1379.13448,447.410573 1386.75998,444.80597 1393.61967,441.225383 C1411.93988,433.743826 1428.17932,422.115077 1442.24302,406.155212 C1468.74676,376.068791 1482.00012,337.269707 1482.00012,289.743129 C1482.00012,156.451561 1408.53526,135.326989 1362.63086,143.950656 L1362.63086,143.950656 Z" id="Fill-8"></path>
            <path d="M1761.27542,353.994934 L1761.27542,238.810989 C1775.45191,228.647699 1801.08892,212.524676 1815.14075,217.271104 C1817.18292,218.264888 1819.00247,219.727381 1820.92889,220.970352 C1836.80026,235.33423 1840.95288,244.821153 1838.77417,292.472325 C1836.57468,340.565509 1839.58748,353.336367 1819.21619,369.634414 C1815.68988,371.630881 1811.94688,373.238733 1808.01391,374.49357 C1793.55247,376.15482 1774.54659,365.2677 1761.27542,353.994934 Z M1822.05386,143.950656 C1776.14946,152.571356 1761.27542,176.751441 1761.27542,176.751441 L1749.5537,151.082164 L1665.76814,151.082164 L1665.76814,589.836048 L1761.27542,556.255069 L1761.27542,430.373862 C1775.20258,441.017727 1797.58042,451.631927 1829.85153,448.306461 C1838.55452,447.410573 1846.18299,444.80597 1853.03971,441.225383 C1871.35991,433.743826 1887.60233,422.115077 1901.66602,406.155212 C1928.1668,376.068791 1941.42016,337.269707 1941.42016,289.743129 C1941.42016,156.451561 1867.95827,135.326989 1822.05386,143.950656 L1822.05386,143.950656 Z" id="Fill-9"></path>
            <path d="M95.5072845,353.994934 L95.5072845,238.810989 C109.683776,228.647699 135.320785,212.524676 149.369641,217.271104 C151.411816,218.264888 153.234338,219.727381 155.157781,220.970352 C171.032127,235.33423 175.184747,244.821153 173.006032,292.472325 C170.806538,340.565509 173.81934,353.336367 153.448054,369.634414 C149.918772,371.630881 146.178743,373.238733 142.245776,374.49357 C127.78433,376.15482 108.775483,365.2677 95.5072845,353.994934 Z M156.282758,143.950656 C110.381321,152.571356 95.5072845,176.751441 95.5072845,176.751441 L83.7825899,151.082164 L0,151.082164 L0,589.836048 L95.5072845,556.255069 L95.5072845,430.373862 C109.431472,441.017727 131.812282,451.631927 164.083391,448.306461 C172.786379,447.410573 180.411883,444.80597 187.271572,441.225383 C205.591778,433.743826 221.83419,422.115077 235.897887,406.155212 C262.398665,376.068791 275.652023,337.269707 275.652023,289.743129 C275.652023,156.451561 202.187164,135.326989 156.282758,143.950656 L156.282758,143.950656 Z" id="Fill-10"></path>
            <path d="M561.138727,208.962759 C578.981425,193.214438 612.438327,206.759303 615.784017,219.102823 C619.129708,231.446343 615.784017,267.355846 615.784017,267.355846 L547.755966,267.355846 C547.755966,233.69143 543.296028,224.714054 561.138727,208.962759 Z M683.809121,309.997638 C710.574643,296.533061 708.3432,226.382258 708.3432,226.382258 C708.3432,226.382258 710.574643,200.027014 686.040564,168.607686 C661.506485,137.185384 567.830107,125.965894 503.147746,147.340315 C438.465384,168.714736 444.767662,260.623558 444.767662,296.875028 C444.767662,333.126498 442.92827,399.771396 507.607683,426.703523 C572.290045,453.632677 699.423325,426.703523 699.423325,426.703523 L699.423325,361.456229 C605.054227,380.823453 566.904515,368.8219 552.18053,352.401539 C538.022513,336.611587 545.524523,316.729926 545.524523,316.729926 C545.524523,316.729926 657.046547,323.465188 683.809121,309.997638 L683.809121,309.997638 Z" id="Fill-11"></path>
            <path d="M923.991441,336.441591 C909.35675,347.204972 882.892843,364.277614 868.391464,359.251542 C866.282172,358.199504 864.400992,356.652565 862.416125,355.336777 C846.030603,340.125204 841.743883,330.078987 843.992411,279.616749 C846.261677,228.689244 843.151065,215.166857 864.181768,197.907516 C867.822666,195.79455 871.685751,194.090546 875.744359,192.762904 C890.672337,191.002593 910.292896,202.530554 923.991441,214.470438 L923.991441,336.441591 Z M924.800201,0 L923.991441,0.293385104 L923.991441,133.588017 C909.617449,122.317881 886.515966,111.077379 853.202787,114.598 C844.220523,115.549279 836.34623,118.305321 829.268845,122.095619 C810.356321,130.01998 793.591601,142.333264 779.072446,159.234024 C751.716831,191.094461 738.036061,232.18023 738.036061,282.509111 C738.036061,423.656981 813.869832,446.025373 861.25483,436.894873 C908.636865,427.767336 923.991441,402.159854 923.991441,402.159854 L936.093205,429.343911 L1022.58008,429.343911 L1022.58008,0 L924.800201,0 L924.800201,0 Z" id="Fill-12"></path>
            <polygon id="Fill-13" points="308.256025 438.672036 414.960034 438.672036 414.960034 139.308011 308.256025 139.308011"></polygon>
            <path d="M409.032034,50.3880041 C409.032034,62.5274359 404.321345,72.9787002 394.890972,81.718145 C385.463598,90.4782854 373.877282,94.8480078 360.12603,94.8480078 C346.770583,94.8480078 335.28022,90.4782854 325.654943,81.718145 C316.026667,72.9787002 311.220026,62.5274359 311.220026,50.3880041 C311.220026,37.8878781 316.026667,27.362701 325.654943,18.7858643 C335.28022,10.2208536 346.770583,5.92800049 360.12603,5.92800049 C373.877282,5.92800049 385.463598,10.2208536 394.890972,18.7858643 C404.321345,27.362701 409.032034,37.8878781 409.032034,50.3880041" id="Fill-14"></path>
        </g>
    </g>
</svg>