<?xml version="1.0" encoding="UTF-8"?>
<svg width="1080px" height="781px" viewBox="0 0 1080 781" version="1.1" xmlns="http://www.w3.org/2000/svg" xmlns:xlink="http://www.w3.org/1999/xlink">
    <!-- Generator: Sketch 61.2 (89653) - https://sketch.com -->
    <title>logo</title>
    <desc>Created with Sketch.</desc>
    <defs>
        <polygon id="path-1" points="0 0.63 1080 0.63 1080 780.211237 0 780.211237"></polygon>
    </defs>
    <g id="Page-1" stroke="none" stroke-width="1" fill="none" fill-rule="evenodd">
        <g id="logo-green" transform="translate(-219.000000, -322.000000)">
            <g id="logo" transform="translate(219.000000, 322.000000)">
                <mask id="mask-2" fill="white">
                    <use xlink:href="#path-1"></use>
                </mask>
                <g id="Clip-2"></g>
                <path d="M1052.19,10.929 C1029.21,22.846 893.582,90.376 759.656,350.283 C759.656,350.283 716.455,445.13 690.816,480.177 C668.935,428.431 603.732,327.303 442.245,391.898 C442.245,391.898 301.509,452.43 205.416,644.617 L181.794,691.468 C154.714,698.7 126.791,705.357 101.117,710.029 C70.894,714.101 46.041,715.739 28.68,716.333 C28.029,716.309 7.452,715.567 1.122,716.498 C-5.309,717.444 16.252,749.823 56.734,762.441 C56.767,762.451 56.798,762.461 56.831,762.471 C69.342,768.219 83.55,772.591 99.939,775.544 C116.961,779.401 136.778,781.06 174.112,779.791 C174.777,779.769 175.441,779.748 176.111,779.723 C176.574,779.707 177.011,779.694 177.479,779.676 C177.602,779.672 177.725,779.648 177.848,779.642 C220.547,777.941 273.013,771.15 338.585,758.87 C552.715,718.768 668.292,739.575 695.531,746.953 C722.77,754.33 727.31,739.575 727.31,739.575 C727.31,739.575 823.782,576.708 819.81,568.196 C815.837,559.684 807.325,559.116 807.325,559.116 C639.35,533.012 532.285,545.497 350.691,634.781 C340.72,639.683 330.801,644.244 320.938,648.58 C317.972,649.623 293.966,658.02 260.21,668.601 C261.845,665.622 267.141,661.152 278.81,654.453 C319.669,630.997 453.594,543.984 545.905,522.797 C638.215,501.611 700.26,507.665 700.26,507.665 C700.26,507.665 716.15,473.616 728.256,453.943 C740.362,434.27 757.387,406.274 780.086,392.655 C802.785,379.035 846.67,358.984 862.181,340.068 C877.693,321.152 896.23,301.858 907.202,223.545 C907.202,223.545 915.772,155.598 953.642,113.207 C991.512,70.815 1035.03,26.163 1070.08,5.815 L1080,0.714 C1080,0.714 1075.18,-0.988 1052.19,10.929" id="Fill-1" fill="#397D74" mask="url(#mask-2)"></path>
            </g>
        </g>
    </g>
</svg>